<?xml version="1.0" encoding="utf-8"?>
<!-- Generator: Adobe Illustrator 23.0.1, SVG Export Plug-In . SVG Version: 6.00 Build 0)  -->
<svg version="1.1" id="Layer_1" xmlns="http://www.w3.org/2000/svg" xmlns:xlink="http://www.w3.org/1999/xlink" x="0px" y="0px"
	 viewBox="0 0 16 16" style="enable-background:new 0 0 16 16;" xml:space="preserve">
<style type="text/css">
	.st0{fill:#FFFFFF;}
</style>
<path class="st0" d="M15,4H1C0.4,4,0,3.6,0,3V1c0-0.6,0.4-1,1-1h14c0.6,0,1,0.4,1,1v2C16,3.6,15.6,4,15,4z"/>
<path class="st0" d="M15,10H1c-0.6,0-1-0.4-1-1V7c0-0.6,0.4-1,1-1h14c0.6,0,1,0.4,1,1v2C16,9.6,15.6,10,15,10z"/>
<path class="st0" d="M15,16H1c-0.6,0-1-0.4-1-1v-2c0-0.6,0.4-1,1-1h14c0.6,0,1,0.4,1,1v2C16,15.6,15.6,16,15,16z"/>
</svg>
